<svg width="25" height="24" viewBox="0 0 25 24" fill="none" xmlns="http://www.w3.org/2000/svg">
<circle cx="12.3922" cy="12" r="11.6" transform="rotate(-180 12.3922 12)" fill="url(#paint0_linear_50_8782)"/>
<circle cx="12.3922" cy="12" r="11.6" transform="rotate(-180 12.3922 12)" fill="url(#paint1_radial_50_8782)"/>
<circle cx="12.3922" cy="12" r="11.6" transform="rotate(-180 12.3922 12)" stroke="url(#paint2_linear_50_8782)" stroke-width="0.8"/>
<g clip-path="url(#clip0_50_8782)">
<path d="M13.5573 4.76571L14.2024 4.10283C14.3871 3.91308 14.7083 3.99915 14.7734 4.25583L15.0007 5.15249C15.2255 6.03946 16.1378 6.56618 17.0184 6.31743L17.9086 6.06593C18.1634 5.99393 18.3985 6.22908 18.3265 6.4839L18.075 7.37408C17.8263 8.25465 18.353 9.16696 19.24 9.3918L20.1366 9.61908C20.3933 9.68415 20.4794 10.0054 20.2896 10.1901L19.6268 10.8352C18.971 11.4734 18.971 12.5269 19.6268 13.1651L20.2896 13.8102C20.4794 13.9949 20.3933 14.3161 20.1366 14.3812L19.24 14.6085C18.353 14.8333 17.8263 15.7456 18.075 16.6262L18.3265 17.5164C18.3985 17.7712 18.1634 18.0063 17.9086 17.9343L17.0184 17.6828C16.1378 17.4341 15.2255 17.9608 15.0007 18.8478L14.7734 19.7444C14.7083 20.0011 14.3871 20.0872 14.2024 19.8974L13.5573 19.2346C12.919 18.5788 11.8656 18.5788 11.2274 19.2346L10.5823 19.8974C10.3976 20.0872 10.0764 20.0011 10.0113 19.7444L9.78401 18.8478C9.55916 17.9608 8.64685 17.4341 7.76629 17.6828L6.8761 17.9343C6.62129 18.0063 6.38613 17.7712 6.45813 17.5164L6.70963 16.6262C6.95841 15.7456 6.4317 14.8333 5.5447 14.6085L4.64804 14.3812C4.39135 14.3161 4.30529 13.9949 4.49504 13.8102L5.15791 13.1651C5.81363 12.5268 5.81363 11.4734 5.15791 10.8352L4.49501 10.1901C4.30526 10.0054 4.39132 9.68415 4.64801 9.61908L5.54466 9.3918C6.43163 9.16696 6.95835 8.25465 6.7096 7.37408L6.4581 6.4839C6.3861 6.22908 6.62126 5.99393 6.87607 6.06593L7.76626 6.31743C8.64682 6.56621 9.55913 6.03949 9.78398 5.15249L10.0113 4.25583C10.0763 3.99915 10.3975 3.91308 10.5822 4.10283L11.2274 4.76571C11.8656 5.42143 12.919 5.42143 13.5573 4.76571Z" fill="#FFE177"/>
<path d="M19.6266 10.8351L20.2894 10.1899C20.4792 10.0052 20.3931 9.684 20.1364 9.61894L19.2398 9.39165C18.3528 9.16681 17.8261 8.2545 18.0749 7.37394L18.3264 6.48375C18.3984 6.22894 18.1632 5.99378 17.9084 6.06578L17.0182 6.31728C16.9068 6.34875 16.7949 6.36772 16.6839 6.37522C17.1879 7.37375 17.4721 8.50215 17.4721 9.69706C17.4721 13.7644 14.1565 17.08 10.0891 17.08C8.89424 17.08 7.76583 16.7958 6.7673 16.2918C6.7598 16.4028 6.74083 16.5147 6.70937 16.6261L6.45787 17.5163C6.38587 17.7711 6.62102 18.0062 6.87583 17.9342L7.76602 17.6827C8.64658 17.434 9.5589 17.9607 9.78374 18.8477L10.011 19.7443C10.0761 20.001 10.3973 20.0871 10.582 19.8973L11.2271 19.2345C11.8654 18.5787 12.9188 18.5787 13.557 19.2345L14.2021 19.8973C14.3868 20.0871 14.7081 20.001 14.7731 19.7443L15.0004 18.8477C15.2252 17.9607 16.1376 17.434 17.0181 17.6827L17.9083 17.9342C18.1631 18.0062 18.3983 17.7711 18.3263 17.5163L18.0748 16.6261C17.826 15.7455 18.3527 14.8332 19.2397 14.6084L20.1363 14.3811C20.393 14.316 20.4791 13.9948 20.2893 13.8101L19.6265 13.165C18.9708 12.5267 18.9708 11.4733 19.6266 10.8351Z" fill="#FFD15B"/>
<path d="M19.6266 10.8351L20.2894 10.1899C20.4792 10.0052 20.3931 9.684 20.1364 9.61894L19.2398 9.39165C18.3528 9.16681 17.8261 8.2545 18.0749 7.37394L18.3264 6.48375C18.3984 6.22894 18.1632 5.99378 17.9084 6.06578L17.0182 6.31728C16.9068 6.34875 16.7949 6.36772 16.6839 6.37522C17.1879 7.37375 17.4721 8.50215 17.4721 9.69706C17.4721 13.7644 14.1565 17.08 10.0891 17.08C8.89424 17.08 7.76583 16.7958 6.7673 16.2918C6.7598 16.4028 6.74083 16.5147 6.70937 16.6261L6.45787 17.5163C6.38587 17.7711 6.62102 18.0062 6.87583 17.9342L7.76602 17.6827C8.64658 17.434 9.5589 17.9607 9.78374 18.8477L10.011 19.7443C10.0761 20.001 10.3973 20.0871 10.582 19.8973L11.2271 19.2345C11.8654 18.5787 12.9188 18.5787 13.557 19.2345L14.2021 19.8973C14.3868 20.0871 14.7081 20.001 14.7731 19.7443L15.0004 18.8477C15.2252 17.9607 16.1376 17.434 17.0181 17.6827L17.9083 17.9342C18.1631 18.0062 18.3983 17.7711 18.3263 17.5163L18.0748 16.6261C17.826 15.7455 18.3527 14.8332 19.2397 14.6084L20.1363 14.3811C20.393 14.316 20.4791 13.9948 20.2893 13.8101L19.6265 13.165C18.9708 12.5267 18.9708 11.4733 19.6266 10.8351Z" fill="#FFD15B"/>
<path d="M12.3921 17.4186C15.3848 17.4186 17.8108 14.9926 17.8108 12C17.8108 9.00738 15.3848 6.58138 12.3921 6.58138C9.39951 6.58138 6.97351 9.00738 6.97351 12C6.97351 14.9926 9.39951 17.4186 12.3921 17.4186Z" fill="#FFC344"/>
<path d="M15.6394 7.66181C16.3178 8.56678 16.7198 9.69094 16.7198 10.909C16.7198 13.9017 14.2938 16.3277 11.3012 16.3277C10.0831 16.3277 8.95892 15.9257 8.05396 15.2472C9.04236 16.5656 10.6176 17.4186 12.3921 17.4186C15.3848 17.4186 17.8108 14.9926 17.8108 12C17.8108 10.2255 16.9577 8.65022 15.6394 7.66181Z" fill="#FEB237"/>
</g>
<defs>
<linearGradient id="paint0_linear_50_8782" x1="12.3922" y1="-9.53674e-07" x2="12.3922" y2="24" gradientUnits="userSpaceOnUse">
<stop stop-color="#C897F9"/>
<stop offset="1" stop-color="#77F2FC"/>
</linearGradient>
<radialGradient id="paint1_radial_50_8782" cx="0" cy="0" r="1" gradientUnits="userSpaceOnUse" gradientTransform="translate(17.5601 7.09489) rotate(121.931) scale(14.2427)">
<stop stop-color="white"/>
<stop offset="1" stop-color="white" stop-opacity="0"/>
</radialGradient>
<linearGradient id="paint2_linear_50_8782" x1="12.3922" y1="-9.53674e-07" x2="12.3922" y2="24" gradientUnits="userSpaceOnUse">
<stop stop-color="white"/>
<stop offset="1" stop-color="white" stop-opacity="0"/>
</linearGradient>
<clipPath id="clip0_50_8782">
<rect width="16" height="16" fill="white" transform="translate(4.39221 4)"/>
</clipPath>
</defs>
</svg>
