<svg width="94" height="42" viewBox="0 0 94 42" fill="none" xmlns="http://www.w3.org/2000/svg">
<g filter="url(#filter0_i_50_8585)">
<rect x="0.0588379" width="93.3333" height="42" rx="21" fill="url(#paint0_linear_50_8585)"/>
</g>
<mask id="mask0_50_8585" style="mask-type:alpha" maskUnits="userSpaceOnUse" x="0" y="0" width="94" height="42">
<rect x="0.0588379" width="93.3333" height="42" rx="21" fill="url(#paint1_linear_50_8585)"/>
</mask>
<g mask="url(#mask0_50_8585)">
<path d="M-1.80786 25.4333V32.4333L2.15881 50.8667C9.23658 53.4333 23.9055 58.7067 25.9588 59.2667C28.5255 59.9667 51.1588 63.7 52.3255 64.1667C53.2588 64.54 85.2255 52.8111 101.092 46.9L95.9588 27.3L75.4255 24.0333L54.8921 22.1667L47.1921 23.1L35.2921 19.1333L-1.80786 25.4333Z" fill="url(#paint2_linear_50_8585)"/>
<path d="M19.4256 30.8L10.7922 43.6333L54.1922 44.8L44.1589 34.3H42.9922L38.0922 26.8333H35.7589L29.4589 17.7333L22.4589 30.8H19.4256Z" fill="url(#paint3_linear_50_8585)"/>
<path d="M48.8255 29.8667L40.1921 42.7L83.5921 43.8667L73.5588 33.3667H72.3921L67.4921 25.9H65.1588L58.8588 16.8L51.8588 29.8667H48.8255Z" fill="url(#paint4_linear_50_8585)"/>
<path d="M69.0678 33.0207L58.3922 48.9517L112.059 50.4L99.6521 37.3655H98.2094L92.1503 28.0966H89.265L81.4746 16.8L72.8187 33.0207H69.0678Z" fill="url(#paint5_linear_50_8585)"/>
<path d="M-2.33218 30.6874L-13.0078 46.6184L40.6589 48.0667L28.252 35.0322H26.8094L20.7503 25.7632H17.8649L10.0746 14.4667L1.41871 30.6874H-2.33218Z" fill="url(#paint6_linear_50_8585)"/>
</g>
<circle cx="67.0588" cy="14" r="2" fill="url(#paint7_linear_50_8585)"/>
<circle cx="38.5588" cy="21.5" r="0.5" fill="url(#paint8_linear_50_8585)"/>
<circle cx="31.5588" cy="9.5" r="0.5" fill="url(#paint9_linear_50_8585)"/>
<circle cx="50.0588" cy="15" r="1" fill="url(#paint10_linear_50_8585)"/>
<circle cx="16.0588" cy="21" r="1" fill="url(#paint11_linear_50_8585)"/>
<defs>
<filter id="filter0_i_50_8585" x="0.0588379" y="0" width="93.3334" height="48" filterUnits="userSpaceOnUse" color-interpolation-filters="sRGB">
<feFlood flood-opacity="0" result="BackgroundImageFix"/>
<feBlend mode="normal" in="SourceGraphic" in2="BackgroundImageFix" result="shape"/>
<feColorMatrix in="SourceAlpha" type="matrix" values="0 0 0 0 0 0 0 0 0 0 0 0 0 0 0 0 0 0 127 0" result="hardAlpha"/>
<feMorphology radius="3" operator="erode" in="SourceAlpha" result="effect1_innerShadow_50_8585"/>
<feOffset dy="6"/>
<feGaussianBlur stdDeviation="4"/>
<feComposite in2="hardAlpha" operator="arithmetic" k2="-1" k3="1"/>
<feColorMatrix type="matrix" values="0 0 0 0 0 0 0 0 0 0 0 0 0 0 0 0 0 0 0.25 0"/>
<feBlend mode="normal" in2="shape" result="effect1_innerShadow_50_8585"/>
</filter>
<linearGradient id="paint0_linear_50_8585" x1="46.7255" y1="0" x2="46.7255" y2="42" gradientUnits="userSpaceOnUse">
<stop stop-color="#364BBA"/>
<stop offset="1" stop-color="#A979D9"/>
</linearGradient>
<linearGradient id="paint1_linear_50_8585" x1="46.7255" y1="0" x2="46.7255" y2="42" gradientUnits="userSpaceOnUse">
<stop stop-color="#ABFAFF"/>
<stop offset="1" stop-color="#D5FFAB"/>
</linearGradient>
<linearGradient id="paint2_linear_50_8585" x1="49.6421" y1="19.1333" x2="49.6421" y2="64.1754" gradientUnits="userSpaceOnUse">
<stop stop-color="#6A86EB"/>
<stop offset="0.553516" stop-color="#010203"/>
</linearGradient>
<linearGradient id="paint3_linear_50_8585" x1="32.4922" y1="17.7333" x2="32.4922" y2="44.8" gradientUnits="userSpaceOnUse">
<stop offset="0.290234" stop-color="#6783CA"/>
<stop offset="1" stop-color="#271B59"/>
</linearGradient>
<linearGradient id="paint4_linear_50_8585" x1="61.8921" y1="16.8" x2="61.8921" y2="43.8667" gradientUnits="userSpaceOnUse">
<stop offset="0.290234" stop-color="#6783CA"/>
<stop offset="1" stop-color="#271B59"/>
</linearGradient>
<linearGradient id="paint5_linear_50_8585" x1="85.2255" y1="16.8" x2="85.2255" y2="50.4" gradientUnits="userSpaceOnUse">
<stop offset="0.290234" stop-color="#6783CA"/>
<stop offset="1" stop-color="#271B59"/>
</linearGradient>
<linearGradient id="paint6_linear_50_8585" x1="13.8255" y1="14.4667" x2="13.8255" y2="48.0667" gradientUnits="userSpaceOnUse">
<stop offset="0.290234" stop-color="#6783CA"/>
<stop offset="1" stop-color="#271B59"/>
</linearGradient>
<linearGradient id="paint7_linear_50_8585" x1="67.0588" y1="12" x2="67.0588" y2="16" gradientUnits="userSpaceOnUse">
<stop stop-color="#FFFEDA"/>
<stop offset="1" stop-color="#FFFEDA" stop-opacity="0.59"/>
</linearGradient>
<linearGradient id="paint8_linear_50_8585" x1="38.5588" y1="21" x2="38.5588" y2="22" gradientUnits="userSpaceOnUse">
<stop stop-color="#FFFEDA"/>
<stop offset="1" stop-color="#FFFEDA" stop-opacity="0.59"/>
</linearGradient>
<linearGradient id="paint9_linear_50_8585" x1="31.5588" y1="9" x2="31.5588" y2="10" gradientUnits="userSpaceOnUse">
<stop stop-color="#FFFEDA"/>
<stop offset="1" stop-color="#FFFEDA" stop-opacity="0.59"/>
</linearGradient>
<linearGradient id="paint10_linear_50_8585" x1="50.0588" y1="14" x2="50.0588" y2="16" gradientUnits="userSpaceOnUse">
<stop stop-color="#FFFEDA"/>
<stop offset="1" stop-color="#FFFEDA" stop-opacity="0.59"/>
</linearGradient>
<linearGradient id="paint11_linear_50_8585" x1="16.0588" y1="20" x2="16.0588" y2="22" gradientUnits="userSpaceOnUse">
<stop stop-color="#FFFEDA"/>
<stop offset="1" stop-color="#FFFEDA" stop-opacity="0.59"/>
</linearGradient>
</defs>
</svg>
